<svg width="66" height="65" viewBox="0 0 66 65" fill="none" xmlns="http://www.w3.org/2000/svg">
<g clip-path="url(#clip0_35_119)">
<path d="M34.3415 36.8224C31.9133 36.8109 29.501 36.4303 27.1872 35.6936C25.3712 35.086 23.7489 34.0075 22.4859 32.5681C21.2229 31.1287 20.3645 29.3799 19.9982 27.5003C19.1824 23.5722 20.6698 19.4187 24.0758 16.1037C24.4417 15.7475 24.8219 15.4063 25.2155 15.081C26.9336 13.6425 28.976 12.6438 31.1663 12.171C33.3566 11.6982 35.6291 11.7655 37.7876 12.3672C39.8577 13.0282 41.6724 14.3137 42.9829 16.0471C44.2933 17.7806 45.0351 19.8771 45.1066 22.049C45.2654 24.6109 44.4304 27.1353 42.7753 29.0972C42.1491 29.8857 41.3178 30.4865 40.3726 30.8336C39.4273 31.1807 38.4048 31.2605 37.4171 31.0645C37.0095 30.9799 36.6232 30.814 36.2813 30.5767C35.9394 30.3393 35.6488 30.0355 35.427 29.6832C35.228 29.3411 35.1001 28.9623 35.0509 28.5695C35.0018 28.1767 35.0324 27.7781 35.141 27.3974C36.0889 23.8159 37.052 18.3732 37.0618 18.3191C37.0865 18.1789 37.1386 18.0451 37.2151 17.9251C37.2916 17.8051 37.391 17.7013 37.5076 17.6197C37.6242 17.5382 37.7557 17.4803 37.8946 17.4496C38.0336 17.4188 38.1772 17.4157 38.3173 17.4405C38.4575 17.4652 38.5914 17.5174 38.7113 17.5939C38.8313 17.6704 38.9351 17.7697 39.0167 17.8863C39.0983 18.0029 39.1561 18.1344 39.1868 18.2734C39.2176 18.4123 39.2207 18.5559 39.1959 18.6961C39.1558 18.9225 38.2068 24.2828 37.2362 27.951C37.202 28.0517 37.1887 28.1582 37.1971 28.2642C37.2054 28.3702 37.2353 28.4734 37.2849 28.5674C37.4348 28.7745 37.6608 28.9136 37.9133 28.9542C38.5181 29.0551 39.139 28.9889 39.7089 28.7627C40.2789 28.5364 40.7761 28.1587 41.147 27.6704C42.4324 26.1328 43.0763 24.1593 42.9453 22.1595C42.8936 20.4306 42.3082 18.76 41.2693 17.3771C40.2305 15.9941 38.7891 14.9665 37.143 14.4353C35.3295 13.9365 33.4219 13.8864 31.5848 14.2893C29.7476 14.6923 28.0361 15.5362 26.5978 16.7482C26.2501 17.0375 25.911 17.3397 25.586 17.6561C23.9025 19.2941 21.2126 22.6936 22.1193 27.0594C22.4187 28.5583 23.1045 29.9529 24.1087 31.1052C25.113 32.2575 26.4008 33.1274 27.8448 33.6287C32.9256 35.2494 40.2273 35.4455 44.0731 30.6626C44.2553 30.4459 44.515 30.3091 44.7968 30.2815C45.0786 30.2539 45.3599 30.3378 45.5807 30.515C45.8014 30.6923 45.944 30.9489 45.9779 31.23C46.0118 31.5111 45.9343 31.7942 45.762 32.0189C42.9172 35.5571 38.5882 36.8224 34.3415 36.8224Z" fill="#FFA500"/>
<path d="M30.6328 31.2053C29.4875 31.2253 28.3703 30.85 27.4694 30.1425C25.3905 28.4785 25.3331 25.5871 25.9159 23.6187C26.1131 22.9633 26.3763 22.3295 26.7035 21.7283C27.5163 20.0882 28.816 18.7393 30.4248 17.8662C31.4005 17.3601 32.5132 17.1812 33.5984 17.356C34.6836 17.5308 35.6839 18.05 36.4513 18.8369C37.2331 19.6936 37.822 20.708 38.1782 21.8117C38.2677 22.0807 38.2483 22.3741 38.124 22.6289C37.9997 22.8837 37.7804 23.0796 37.5133 23.1746C37.2462 23.2696 36.9525 23.2561 36.6952 23.137C36.4379 23.0179 36.2376 22.8027 36.1372 22.5375C35.8803 21.7224 35.4535 20.971 34.8848 20.333C34.4378 19.8757 33.8535 19.577 33.221 19.4826C32.5885 19.3881 31.9425 19.503 31.3813 19.8097C30.1748 20.4902 29.2052 21.5233 28.6026 22.7705C28.3495 23.2379 28.1451 23.7302 27.9927 24.2395C27.5713 25.663 27.6644 27.522 28.8258 28.4515C30.0954 29.472 32.2383 29.0408 33.444 28.0008C34.3421 27.1918 35.1137 26.2525 35.7331 25.2145C35.8081 25.0935 35.9063 24.9886 36.0219 24.9056C36.1375 24.8226 36.2683 24.7632 36.4069 24.7307C36.5454 24.6983 36.6891 24.6934 36.8295 24.7165C36.9699 24.7395 37.1045 24.79 37.2254 24.8651C37.3463 24.9401 37.4513 25.0383 37.5343 25.1539C37.6173 25.2695 37.6767 25.4003 37.7091 25.5389C37.7416 25.6774 37.7464 25.8211 37.7233 25.9615C37.7003 26.1019 37.6498 26.2365 37.5748 26.3574C36.8405 27.5803 35.9264 28.6857 34.8632 29.6366C33.6787 30.6361 32.1825 31.1909 30.6328 31.2053Z" fill="#FFA500"/>
<path d="M62.25 65H3.75C2.88831 64.9991 2.06216 64.6564 1.45285 64.0471C0.843547 63.4378 0.500861 62.6117 0.5 61.75V21.6666C0.499871 21.4607 0.558446 21.259 0.668858 21.0851C0.779271 20.9113 0.936947 20.7725 1.12341 20.6851C1.30987 20.5977 1.51739 20.5652 1.72164 20.5915C1.9259 20.6178 2.11843 20.7018 2.27667 20.8336L28.8573 42.9249C30.0233 43.8883 31.4886 44.4153 33.0011 44.4153C34.5136 44.4153 35.9789 43.8883 37.1448 42.9249L63.7233 20.8325C63.8816 20.7006 64.0743 20.6166 64.2786 20.5904C64.483 20.5641 64.6906 20.5967 64.8771 20.6843C65.0636 20.7718 65.2213 20.9107 65.3316 21.0847C65.4419 21.2587 65.5003 21.4606 65.5 21.6666V61.75C65.4991 62.6117 65.1565 63.4378 64.5471 64.0471C63.9378 64.6564 63.1117 64.9991 62.25 65ZM2.66667 23.9752V61.75C2.66667 62.348 3.152 62.8333 3.75 62.8333H62.25C62.5373 62.8333 62.8129 62.7192 63.016 62.516C63.2192 62.3128 63.3333 62.0373 63.3333 61.75V23.9752L38.5272 44.5911C36.9722 45.8761 35.0182 46.5793 33.0009 46.5797C30.9837 46.5801 29.0294 45.8777 27.4739 44.5932L2.66667 23.9752Z" fill="#FFA500"/>
<path d="M1.58447 22.7497C1.3544 22.7502 1.13017 22.6774 0.944247 22.5418C0.758326 22.4063 0.620376 22.2151 0.550379 21.996C0.480383 21.7768 0.481976 21.5411 0.554928 21.3229C0.62788 21.1047 0.768402 20.9154 0.956137 20.7824L10.7061 13.8707C10.9406 13.7045 11.2315 13.6382 11.5148 13.6865C11.7981 13.7347 12.0506 13.8936 12.2168 14.128C12.3831 14.3625 12.4493 14.6533 12.4011 14.9367C12.3528 15.22 12.194 15.4725 11.9596 15.6387L2.20955 22.5504C2.027 22.6802 1.80849 22.7499 1.58447 22.7497ZM64.4156 22.7497C64.1916 22.7499 63.9731 22.6802 63.7906 22.5504L54.0406 15.6387C53.8086 15.4717 53.652 15.2197 53.605 14.9378C53.558 14.6558 53.6243 14.3667 53.7895 14.1334C53.9548 13.9001 54.2055 13.7416 54.4871 13.6924C54.7687 13.6432 55.0583 13.7073 55.2929 13.8707L65.0429 20.7824C65.2305 20.9153 65.3709 21.1044 65.4439 21.3224C65.5169 21.5403 65.5187 21.7759 65.449 21.995C65.3792 22.214 65.2417 22.4052 65.0561 22.5409C64.8705 22.6766 64.6455 22.7497 64.4156 22.7497ZM43.0101 7.58305C42.7857 7.58326 42.5668 7.51359 42.3839 7.38372L37.2056 3.71122C36.0408 2.72672 34.5674 2.18235 33.0423 2.17304C31.5173 2.16374 30.0373 2.69009 28.8606 3.6603L23.6173 7.38372C23.3829 7.54993 23.092 7.6162 22.8087 7.56795C22.5253 7.5197 22.2728 7.36088 22.1066 7.12643C21.9404 6.89198 21.8741 6.6011 21.9224 6.31779C21.9706 6.03447 22.1294 5.78193 22.3639 5.61572L27.5422 1.94322C29.0936 0.674712 31.0381 -0.0141315 33.042 -0.00503806C35.046 0.00405538 36.9842 0.710518 38.524 1.99305L43.6373 5.61572C43.825 5.74871 43.9656 5.93801 44.0385 6.15621C44.1115 6.3744 44.1131 6.61016 44.0431 6.82932C43.9731 7.04848 43.8351 7.23966 43.6492 7.37518C43.4633 7.51069 43.239 7.5835 43.009 7.58305H43.0101ZM2.28755 64.4147C2.06448 64.4152 1.84671 64.3467 1.66399 64.2188C1.48127 64.0908 1.3425 63.9096 1.26665 63.6998C1.1908 63.49 1.18156 63.2619 1.24018 63.0467C1.29881 62.8314 1.42245 62.6396 1.59422 62.4972L26.3159 41.9572C26.4254 41.8663 26.5517 41.7979 26.6876 41.7558C26.8235 41.7137 26.9664 41.6988 27.1081 41.7119C27.2498 41.725 27.3875 41.7659 27.5134 41.8323C27.6393 41.8986 27.7509 41.9891 27.8418 42.0986C27.9327 42.2081 28.0011 42.3344 28.0432 42.4703C28.0853 42.6062 28.1002 42.7491 28.0871 42.8908C28.074 43.0325 28.0331 43.1702 27.9667 43.2961C27.9004 43.422 27.8099 43.5336 27.7004 43.6245L2.97872 64.1645C2.78468 64.3261 2.54012 64.4147 2.28755 64.4147ZM63.7115 64.4147C63.4589 64.415 63.2142 64.3264 63.0203 64.1645L38.2986 43.6245C38.1863 43.5345 38.0931 43.4231 38.0244 43.2967C37.9556 43.1703 37.9127 43.0314 37.8982 42.8883C37.8837 42.7451 37.8979 42.6005 37.9399 42.4629C37.9819 42.3252 38.0508 42.1974 38.1428 42.0867C38.2348 41.976 38.3479 41.8848 38.4755 41.8183C38.6031 41.7518 38.7427 41.7114 38.8861 41.6995C39.0294 41.6875 39.1738 41.7042 39.3106 41.7487C39.4475 41.7931 39.5741 41.8644 39.6831 41.9583L64.4048 62.4983C64.5766 62.6406 64.7002 62.8325 64.7588 63.0478C64.8175 63.263 64.8082 63.4911 64.7324 63.7009C64.6565 63.9106 64.5178 64.0919 64.335 64.2198C64.1523 64.3478 63.9345 64.4152 63.7115 64.4147Z" fill="#FFA500"/>
<path d="M54.6667 30.8534C54.3793 30.8534 54.1038 30.7392 53.9006 30.5361C53.6975 30.3329 53.5833 30.0573 53.5833 29.77V7.59203C53.5801 7.6137 53.5368 7.58336 53.4642 7.58336H12.5358C12.5121 7.58193 12.4884 7.58532 12.4661 7.59333C12.4437 7.60134 12.4232 7.61379 12.4058 7.62995L12.4167 29.77C12.4167 30.0573 12.3025 30.3329 12.0994 30.5361C11.8962 30.7392 11.6207 30.8534 11.3333 30.8534C11.046 30.8534 10.7705 30.7392 10.5673 30.5361C10.3641 30.3329 10.25 30.0573 10.25 29.77V7.58336C10.267 6.99333 10.5171 6.43407 10.9455 6.028C11.3739 5.62193 11.9457 5.40212 12.5358 5.4167H53.4642C54.0543 5.40212 54.6261 5.62193 55.0545 6.028C55.4829 6.43407 55.733 6.99333 55.75 7.58336V29.77C55.75 30.0573 55.6359 30.3329 55.4327 30.5361C55.2295 30.7392 54.954 30.8534 54.6667 30.8534Z" fill="#FFA500"/>
</g>
<defs>
<clipPath id="clip0_35_119">
<rect width="65" height="65" fill="white" transform="translate(0.5)"/>
</clipPath>
</defs>
</svg>
