<svg width="64" height="63" viewBox="0 0 64 63" fill="none" xmlns="http://www.w3.org/2000/svg">
<path d="M53.9883 9.51172C48.123 3.63379 40.3027 0.396484 32 0.396484C23.6973 0.396484 15.877 3.63379 10.0117 9.51172C4.14648 15.3896 0.896484 23.1973 0.896484 31.5C0.896484 39.8027 4.13379 47.623 10.0117 53.4883C15.8896 59.3535 23.6973 62.6035 32 62.6035C40.3027 62.6035 48.123 59.3662 53.9883 53.4883C59.8535 47.6104 63.1035 39.8027 63.1035 31.5C63.1035 23.1973 59.8662 15.377 53.9883 9.51172ZM60.2852 30.1035H48.2246C48.1104 25.3047 47.4375 20.6836 46.2568 16.583C48.5547 15.4023 50.7002 13.917 52.668 12.165C57.1113 16.9131 59.9424 23.1846 60.2852 30.1035ZM33.3965 32.8965H45.4443C45.3428 37.3145 44.7334 41.542 43.6797 45.3252C40.4297 44.0176 36.9639 43.2559 33.3965 43.0908V32.8965ZM50.6621 10.2227C49.0371 11.6572 47.2598 12.876 45.3809 13.8916C44.8984 12.5459 44.3525 11.2764 43.7432 10.083C42.5371 7.69629 41.166 5.74121 39.6553 4.24316C43.7812 5.39844 47.5264 7.46777 50.6621 10.2227ZM33.3965 3.62109C36.3037 4.26855 39.0459 6.94727 41.2549 11.3145C41.8516 12.4951 42.3848 13.752 42.8545 15.085C39.8711 16.3164 36.6846 17.04 33.3965 17.2051V3.62109ZM43.6924 17.7637C44.7334 21.5215 45.3301 25.7236 45.4316 30.1162H33.3965V20.0107C36.9766 19.8457 40.4424 19.0713 43.6924 17.7637ZM30.6035 30.1035H18.5557C18.6572 25.7109 19.2539 21.5088 20.2949 17.751C23.5449 19.0713 27.0234 19.833 30.5908 19.9854V30.1035H30.6035ZM30.6162 3.62109V17.2051C27.3281 17.04 24.1289 16.3164 21.1582 15.085C21.6279 13.752 22.1611 12.4951 22.7578 11.3145C24.9668 6.94727 27.709 4.26855 30.6162 3.62109ZM24.3574 4.24316C22.8467 5.74121 21.4756 7.70898 20.2695 10.083C19.6729 11.2764 19.127 12.5459 18.6318 13.8916C16.7529 12.876 14.9883 11.6572 13.3506 10.2227C16.4863 7.46777 20.2314 5.39844 24.3574 4.24316ZM11.3447 12.165C13.3125 13.917 15.458 15.3896 17.7559 16.583C16.5752 20.6963 15.8896 25.3047 15.7881 30.1035H3.72754C4.07031 23.1846 6.90137 16.9131 11.3447 12.165ZM3.72754 32.8965H15.7881C15.9023 37.7334 16.5879 42.3672 17.7812 46.4932C15.4961 47.6738 13.3506 49.1338 11.3955 50.8857C6.91406 46.125 4.07031 39.8408 3.72754 32.8965ZM13.4014 52.8281C15.0264 51.4062 16.791 50.1875 18.6572 49.1846C19.1396 50.4922 19.6729 51.749 20.2695 52.917C21.4756 55.3037 22.8467 57.2588 24.3574 58.7695C20.2568 57.6143 16.5244 55.5576 13.4014 52.8281ZM30.6162 59.3789C27.709 58.7314 24.9668 56.0527 22.7578 51.6855C22.1738 50.5303 21.6533 49.2988 21.1836 47.9912C24.1543 46.7598 27.3408 46.0361 30.6162 45.8838V59.3789ZM20.333 45.3252C19.2793 41.542 18.6699 37.3145 18.5684 32.8965H30.6162V43.0908C27.0488 43.2432 23.583 44.0049 20.333 45.3252ZM33.4092 59.3789V45.8838C36.6846 46.0488 39.8711 46.7598 42.8418 47.9912C42.3721 49.2988 41.8516 50.5303 41.2676 51.6855C39.0586 56.0527 36.3164 58.7314 33.4092 59.3789ZM39.668 58.7568C41.1787 57.2588 42.5498 55.291 43.7559 52.9043C44.3525 51.7363 44.8857 50.4795 45.3682 49.1719C47.2344 50.1748 48.999 51.3936 50.624 52.8154C47.501 55.5576 43.7686 57.6143 39.668 58.7568ZM52.6426 50.8857C50.6875 49.1465 48.542 47.6738 46.2568 46.4932C47.4502 42.3672 48.1357 37.7207 48.25 32.8965H60.3105C59.9551 39.8408 57.1113 46.125 52.6426 50.8857Z" fill="#FFA500"/>
</svg>
