<svg width="66" height="65" viewBox="0 0 66 65" fill="none" xmlns="http://www.w3.org/2000/svg">
<g clip-path="url(#clip0_35_130)">
<path d="M65.6779 62.4624L54.2079 35.702C54.0604 35.3583 53.8153 35.0653 53.503 34.8594C53.1908 34.6536 52.8249 34.5438 52.4509 34.5437H45.1664C48.1147 29.3932 50.5391 23.6926 50.5391 18.8694C50.5391 -5.96885 16.129 -6.27176 16.129 18.8694C16.129 23.6926 18.5534 29.3931 21.5016 34.5437H14.2172C13.8431 34.5437 13.4772 34.6534 13.1649 34.8593C12.8526 35.0652 12.6075 35.3583 12.4601 35.7021L0.990181 62.4624C0.45063 63.7211 1.3751 65.1269 2.74721 65.1269H63.9208C65.29 65.1269 66.2183 63.7241 65.6779 62.4624ZM51.1897 38.3665L56.8496 51.5706C56.6726 51.6628 38.2514 61.2285 38.1195 61.3039H34.118C34.0169 61.1909 34.8768 62.0552 22.4176 49.5974L29.3379 46.0555C30.7489 47.8562 31.7372 49.0003 31.8915 49.1778C32.6532 50.0546 34.0154 50.0532 34.7761 49.1778C35.096 48.8099 38.9928 44.2946 42.8316 38.3665H51.1897ZM33.334 3.95965C39.7789 3.95965 46.7157 8.62569 46.7157 18.8693C46.7157 27.4823 37.0609 40.3 33.334 44.9259C29.6073 40.2996 19.9524 27.4823 19.9524 18.8693C19.9524 8.57034 26.6728 3.95965 33.334 3.95965ZM15.4778 38.3665C24.7384 38.3665 23.6861 38.368 23.8344 38.3636C24.9109 40.0263 25.9921 41.578 26.9978 42.9586L9.71922 51.8018L15.4778 38.3665ZM7.3612 57.3035L18.8416 51.4279L28.719 61.304H5.64631L7.3612 57.3035ZM46.4053 61.304L58.3602 55.0942L61.0217 61.304H46.4053Z" fill="#FFA500"/>
<path d="M39.0686 17.3404C39.0686 14.1785 36.4958 11.6057 33.3339 11.6057C30.1715 11.6057 27.5986 14.1785 27.5986 17.3404C27.5986 20.5023 30.1715 23.0747 33.3339 23.0747C36.4958 23.0747 39.0686 20.5023 39.0686 17.3404ZM31.4222 17.3404C31.4222 16.2861 32.2795 15.4287 33.3339 15.4287C34.3876 15.4287 35.2457 16.2861 35.2457 17.3404C35.2457 18.3942 34.3877 19.2517 33.3339 19.2517C32.2795 19.2517 31.4221 18.3943 31.4221 17.3404H31.4222Z" fill="#FFA500"/>
</g>
<defs>
<clipPath id="clip0_35_130">
<rect width="65" height="65" fill="white" transform="translate(0.833984)"/>
</clipPath>
</defs>
</svg>
