<svg width="66" height="65" viewBox="0 0 66 65" fill="none" xmlns="http://www.w3.org/2000/svg">
<path d="M47.7983 42.5141C47.2321 41.946 46.5594 41.4953 45.8187 41.1877C45.078 40.8801 44.2839 40.7218 43.4819 40.7218C42.6798 40.7218 41.8857 40.8801 41.145 41.1877C40.4043 41.4953 39.7316 41.946 39.1655 42.5141L36.2201 45.4594C32.9039 43.3548 29.8315 40.8886 27.0592 38.1063C24.2828 35.3288 21.8172 32.257 19.7061 28.9454L22.6514 26.0001C23.2195 25.4339 23.6703 24.7612 23.9778 24.0205C24.2854 23.2798 24.4437 22.4857 24.4437 21.6837C24.4437 20.8816 24.2854 20.0875 23.9778 19.3468C23.6703 18.6061 23.2195 17.9334 22.6514 17.3672L16.903 11.6391C16.3448 11.0691 15.6778 10.6172 14.9415 10.3101C14.2052 10.003 13.4148 9.84712 12.617 9.85162C11.8136 9.84965 11.0178 10.0066 10.2753 10.3133C9.53273 10.6201 8.85819 11.0707 8.29046 11.6391L5.52796 14.3813C4.21125 15.797 3.22853 17.4898 2.65205 19.3353C2.07556 21.1807 1.91997 23.1319 2.19671 25.0454C2.84671 32.6626 7.84359 41.8235 15.542 49.5422C23.2405 57.261 32.503 62.2376 40.1202 62.9688C40.6885 62.9992 41.2581 62.9992 41.8264 62.9688C43.4661 63.0376 45.103 62.7785 46.6412 62.2064C48.1794 61.6344 49.5879 60.761 50.7842 59.6376L53.5264 56.8751C54.0948 56.3073 54.5454 55.6328 54.8522 54.8903C55.159 54.1478 55.3159 53.3519 55.3139 52.5485C55.3184 51.7508 55.1625 50.9603 54.8554 50.224C54.5483 49.4877 54.0964 48.8207 53.5264 48.2626L47.7983 42.5141ZM50.6623 54.011L47.8998 56.7532C46.8784 57.6045 45.686 58.2263 44.4034 58.5768C43.1208 58.9272 41.7778 58.9981 40.4655 58.7844C33.8639 58.2157 25.4545 53.5438 18.5076 46.5969C11.5608 39.6501 6.8889 31.3016 6.25921 24.7001C6.04016 23.3877 6.10832 22.0434 6.459 20.76C6.80968 19.4765 7.43452 18.2843 8.29046 17.2657L11.1545 14.5032C11.3443 14.3149 11.5694 14.166 11.8169 14.0649C12.0644 13.9638 12.3294 13.9126 12.5967 13.9141C12.864 13.9126 13.129 13.9638 13.3765 14.0649C13.624 14.166 13.8491 14.3149 14.0389 14.5032L19.7873 20.3126C20.1657 20.6931 20.378 21.208 20.378 21.7446C20.378 22.2812 20.1657 22.796 19.7873 23.1766L15.7248 27.2391C15.4069 27.5555 15.2027 27.9681 15.1439 28.4127C15.0851 28.8573 15.1751 29.3089 15.3998 29.6969C17.832 33.8375 20.7882 37.6471 24.1952 41.0313C27.5794 44.4383 31.3889 47.3944 35.5295 49.8266C35.9176 50.0514 36.3692 50.1414 36.8138 50.0826C37.2584 50.0238 37.671 49.8195 37.9873 49.5016L42.0498 45.4391C42.4304 45.0608 42.9452 44.8484 43.4819 44.8484C44.0185 44.8484 44.5333 45.0608 44.9139 45.4391L50.6623 51.1876C50.8506 51.3774 50.9995 51.6025 51.1006 51.8499C51.2017 52.0974 51.2529 52.3624 51.2514 52.6297C51.2387 53.1485 51.0279 53.6427 50.6623 54.011ZM54.1967 10.9485C51.3738 8.11484 48.0179 5.86802 44.3225 4.33756C40.6271 2.8071 36.6653 2.02328 32.6655 2.03131C32.1267 2.03131 31.6101 2.24532 31.2292 2.62625C30.8482 3.00718 30.6342 3.52384 30.6342 4.06256C30.6342 4.60128 30.8482 5.11794 31.2292 5.49887C31.6101 5.87981 32.1267 6.09381 32.6655 6.09381C36.1521 6.09369 39.6042 6.78404 42.8226 8.12503C46.041 9.46601 48.962 11.4311 51.4169 13.9069C53.8719 16.3826 55.8123 19.32 57.1262 22.5496C58.44 25.7792 59.1012 29.237 59.0717 32.7235C59.0717 33.2622 59.2857 33.7789 59.6667 34.1598C60.0476 34.5407 60.5642 34.7547 61.103 34.7547C61.6417 34.7547 62.1583 34.5407 62.5393 34.1598C62.9202 33.7789 63.1342 33.2622 63.1342 32.7235C63.1731 28.6812 62.4024 24.672 60.8674 20.9322C59.3324 17.1925 57.0643 13.7979 54.1967 10.9485Z" fill="#FFA500"/>
<path d="M42.64 22.5671C43.7928 23.7129 44.7048 25.0777 45.3222 26.5812C45.9396 28.0847 46.2501 29.6965 46.2354 31.3218C46.2354 31.8605 46.4494 32.3772 46.8303 32.7581C47.2112 33.139 47.7279 33.353 48.2666 33.353C48.8053 33.353 49.322 33.139 49.7029 32.7581C50.0838 32.3772 50.2979 31.8605 50.2979 31.3218C50.3247 29.1708 49.9243 27.0358 49.1197 25.0408C48.3151 23.0457 47.1224 21.2303 45.6108 19.6998C44.0991 18.1692 42.2986 16.9541 40.3137 16.1247C38.3288 15.2954 36.199 14.8685 34.0479 14.8687C33.5091 14.8687 32.9925 15.0827 32.6115 15.4636C32.2306 15.8445 32.0166 16.3612 32.0166 16.8999C32.0166 17.4386 32.2306 17.9553 32.6115 18.3362C32.9925 18.7171 33.5091 18.9312 34.0479 18.9312C35.6486 18.9432 37.2314 19.2705 38.7056 19.8944C40.1799 20.5182 41.5168 21.4264 42.64 22.5671Z" fill="#FFA500"/>
</svg>
